<?xml version="1.0" encoding="UTF-8"?>
<!DOCTYPE svg PUBLIC "-//W3C//DTD SVG 1.1//EN" "http://www.w3.org/Graphics/SVG/1.1/DTD/svg11.dtd">
<svg version="1.1" xmlns="http://www.w3.org/2000/svg" xmlns:xlink="http://www.w3.org/1999/xlink" x="0" y="0" width="1133.858" height="1700.787" viewBox="0, 0, 1133.858, 1700.787">
  <g id="Layer_1">
    <path d="M787.917,518.787 L779.413,518.787 L779.413,660.52 L787.917,660.52 L787.917,813.591 L340.043,813.591 L340.043,365.717 L493.114,365.717 L493.114,374.221 L634.846,374.221 L634.846,365.717 L787.917,365.717 L787.917,518.787 z M493.114,805.087 L493.114,813.591 L634.846,813.591 L634.846,805.087 L493.114,805.087 z M340.043,518.787 L340.043,660.52 L348.547,660.52 L348.547,518.787 L340.043,518.787 z" fill="#A0A0A0"/>
    <path d="M787.917,1304.787 L779.413,1304.787 L779.413,1446.52 L787.917,1446.52 L787.917,1599.591 L340.043,1599.591 L340.043,1151.717 L493.114,1151.717 L493.114,1160.22 L634.846,1160.22 L634.846,1151.717 L787.917,1151.717 L787.917,1304.787 z M493.114,1591.087 L493.114,1599.59 L634.846,1599.59 L634.846,1591.087 L493.114,1591.087 z M340.043,1304.787 L340.043,1446.52 L348.547,1446.52 L348.547,1304.787 L340.043,1304.787 z" fill="#A0A0A0"/>
    <path d="M787.917,87.869 L787.917,314.641 L634.847,314.641 L634.847,323.144 L493.114,323.144 L493.114,314.641 L340.043,314.641 L340.043,87.869 L493.114,87.869 L493.114,79.365 L634.847,79.365 L634.847,87.869 L787.917,87.869 z M779.413,158.735 L779.413,243.774 L787.917,243.774 L787.917,158.735 L779.413,158.735 z M340.043,158.735 L340.043,243.774 L348.547,243.774 L348.547,158.735 L340.043,158.735 z" fill="#A0A0A0"/>
    <path d="M787.917,861.869 L787.917,1088.641 L634.847,1088.641 L634.847,1097.144 L493.114,1097.144 L493.114,1088.641 L340.043,1088.641 L340.043,861.869 L493.114,861.869 L493.114,853.365 L634.847,853.365 L634.847,861.869 L787.917,861.869 z M779.413,932.735 L779.413,1017.774 L787.917,1017.774 L787.917,932.735 L779.413,932.735 z M340.043,932.735 L340.043,1017.774 L348.547,1017.774 L348.547,932.735 L340.043,932.735 z" fill="#A0A0A0"/>
    <path d="M144.91,374.221 L144.91,365.717 L244.122,365.717 L244.122,365.717 L230.043,365.717 L230.043,374.221 L300.815,374.221 L300.815,519.717 L309.319,519.717 L309.319,661.449 L300.815,661.449 L300.815,805.087 L244.122,805.087 L244.122,805.087 L230.044,805.087 L230.044,813.591 L144.91,813.591 L144.91,805.087 L130.736,805.087 L130.736,805.087 L74.044,805.087 L74.044,661.449 L65.54,661.449 L65.54,519.717 L74.044,519.717 L74.044,374.221 L144.91,374.221 z" fill="#A0A0A0"/>
    <path d="M903.91,374.221 L903.91,365.717 L1003.122,365.717 L1003.122,365.717 L989.043,365.717 L989.043,374.221 L1059.815,374.221 L1059.815,519.717 L1068.319,519.717 L1068.319,661.449 L1059.815,661.449 L1059.815,805.087 L1003.122,805.087 L1003.122,805.087 L989.043,805.087 L989.043,813.591 L903.91,813.591 L903.91,805.087 L889.736,805.087 L889.736,805.087 L833.043,805.087 L833.043,661.449 L824.54,661.449 L824.54,519.717 L833.043,519.717 L833.043,374.221 L903.91,374.221 z" fill="#A0A0A0"/>
    <path d="M290.215,431.806 L838.746,748.501" fill-opacity="0" stroke="#000000" stroke-width="1"/>
    <path d="M290.215,748.501 L838.746,431.806" fill-opacity="0" stroke="#000000" stroke-width="1"/>
    <path d="M564.48,906.848 L564.48,273.459" fill-opacity="0" stroke="#000000" stroke-width="1"/>
    <path d="M564.48,614.248 C551.173,614.248 540.386,603.461 540.386,590.154 C540.386,576.847 551.173,566.059 564.48,566.059 C577.787,566.059 588.575,576.847 588.575,590.154 C588.575,603.461 577.787,614.248 564.48,614.248 z" fill-opacity="0" stroke="#000000" stroke-width="1"/>
  </g>
</svg>
