<?xml version="1.0" encoding="UTF-8"?>
<!DOCTYPE svg PUBLIC "-//W3C//DTD SVG 1.1//EN" "http://www.w3.org/Graphics/SVG/1.1/DTD/svg11.dtd">
<svg version="1.1" xmlns="http://www.w3.org/2000/svg" xmlns:xlink="http://www.w3.org/1999/xlink" x="0" y="0" width="595.276" height="841.89" viewBox="0, 0, 595.276, 841.89">
  <g id="Layer_1">
    <path d="M136,50.294 C174.312,50.472 208.8,76.822 218.362,114.081 C220.21,121.282 220.188,123.663 220.932,131.081 L192.693,131.081 L192.693,139.585 L220.932,139.585 C217.296,185.759 182.411,219.199 136,220.373 C122.118,220.336 108.379,217.01 96.172,210.379 L110.302,185.906 L102.937,181.654 L88.873,206.014 C64.639,190.083 51.684,163.976 50.961,135.333 C51.161,105.616 65.696,80.309 90.094,63.828 L104.204,88.267 L111.568,84.015 L97.464,59.586 C109.268,53.128 122.684,50.631 136,50.294 z M136,106.987 C120.345,106.987 107.654,119.678 107.653,135.333 C107.654,150.989 120.345,163.68 136,163.68 C151.655,163.68 164.346,150.989 164.346,135.333 C164.346,119.678 151.655,106.987 136,106.987 z" fill="#A0A0A0"/>
    <path d="M137.927,430.703 L144.037,430.799 L150.095,431.342 L150.251,431.358 C159.944,432.788 169.553,435.489 178.198,440.19 L164.19,464.453 L171.555,468.705 L185.549,444.467 C189.64,447.134 187.746,445.778 191.263,448.491 C210.753,463.821 222.96,486.614 224.209,511.415 L196.267,511.415 L196.267,519.919 L224.182,519.919 C223.94,525.531 224.189,521.931 222.99,530.678 L222.952,530.904 L221.687,536.342 L220.813,539.693 L219.829,542.666 L217.872,548.1 L217.747,548.388 C210.987,564.813 199.353,577.987 184.533,587.568 L170.474,563.218 L163.11,567.47 L177.095,591.693 C169.359,595.647 160.869,598.153 152.307,599.541 C149.816,599.945 147.293,600.114 144.786,600.4 L143.176,600.536 L141.402,600.62 L132.01,600.248 L131.019,600.126 C122.156,598.695 120.236,598.763 111.529,595.755 C108.29,594.636 105.188,593.153 102.017,591.852 L99.746,590.713 L113.876,566.24 L106.511,561.988 L92.447,586.347 C87.513,583.223 83.147,579.362 78.981,575.3 L78.104,574.436 L76.996,573.208 L74.532,570.452 L74.487,570.395 L71.341,566.396 L67.886,561.259 L66.275,558.481 L63.536,553.271 L61.395,548.448 L59.532,543.553 L58.086,538.84 L56.671,533.225 L55.892,528.991 C54.754,520.567 54.954,523.688 54.744,519.679 L82.867,519.679 L82.867,511.175 L54.701,511.175 C54.667,504.002 56.641,497.48 58.415,490.659 L59.091,488.47 L61.689,481.978 L63.006,478.93 C69.309,465.649 77.511,457.316 88.497,447.961 C92.682,444.916 90.888,446.071 93.757,444.315 L107.778,468.6 L115.143,464.348 L101.149,440.111 C109.309,435.763 118.247,433.069 127.365,431.696 L133.324,431.004 L137.449,430.725 L137.927,430.703 z M139.574,487.32 C136.365,487.482 137.624,487.273 135.76,487.653 C134.193,487.764 135.142,487.639 132.945,488.228 C130.88,488.649 131.709,488.356 130.399,488.91 C128.914,489.308 129.847,489.003 127.687,490.055 C125.856,490.829 126.55,490.412 125.504,491.118 C123.991,491.856 124.935,491.331 122.819,492.932 C121.378,493.905 121.906,493.43 121.119,494.217 C119.673,495.311 120.524,494.582 118.742,496.594 C117.54,497.797 117.975,497.229 117.318,498.202 C115.912,499.79 116.762,498.743 114.977,501.503 L114.977,501.503 C113.331,504.718 113.961,503.169 112.98,506.106 C112.4,507.478 112.584,506.836 112.345,508.006 C111.616,510.189 111.929,508.94 111.574,511.79 C111.304,513.111 111.391,512.436 111.321,513.817 C111.157,515.138 111.159,514.547 111.232,515.587 L111.228,515.667 C111.383,518.737 111.181,517.617 111.477,519.07 C111.633,521.277 111.456,519.94 112.286,523.035 C112.534,524.252 112.362,523.764 112.688,524.535 C113.219,526.517 112.813,525.272 114.216,528.154 C114.704,529.309 114.441,528.871 114.887,529.531 C115.777,531.357 115.144,530.218 117.075,532.771 C117.782,533.818 117.437,533.434 118.009,534.005 C119.205,535.588 118.408,534.657 120.609,536.606 C121.688,537.685 121.178,537.294 122.052,537.883 C123.64,539.29 122.593,538.44 125.353,540.225 L126.041,540.577 C126.074,540.6 126.055,540.588 126.102,540.609 C128.517,541.845 127.285,541.33 129.793,542.168 C131.433,542.86 130.666,542.641 132.063,542.926 C133.931,543.55 132.862,543.283 135.302,543.586 C137.158,543.965 136.209,543.843 138.149,543.941 C138.89,544.033 138.559,544.032 139.142,543.991 L139.574,544.013 C142.753,543.853 141.525,544.06 143.297,543.698 C144.856,543.589 143.912,543.713 146.097,543.128 C148.284,542.682 147.406,542.991 148.794,542.405 C150.018,542.077 149.249,542.328 151.029,541.461 C153.348,540.481 152.469,541.008 153.793,540.115 C154.847,539.601 154.19,539.966 155.664,538.851 C157.857,537.37 157.053,538.092 158.251,536.895 C159.139,536.223 158.616,536.67 159.71,535.435 C161.717,533.429 160.989,534.376 162.086,532.752 C163.14,531.562 162.386,532.46 164.075,529.849 L164.164,529.675 C164.683,528.907 164.422,529.362 164.882,528.272 C165.56,526.947 165.278,527.623 165.738,526.247 C166.84,523.638 166.491,524.859 166.944,522.635 C167.312,521.534 167.154,522.164 167.333,520.727 C167.968,517.617 167.737,519.299 167.921,515.667 C167.753,512.349 167.968,513.716 167.522,511.533 C167.458,510.613 167.531,511.17 167.186,509.882 C166.567,506.849 166.996,508.066 166.183,506.141 C165.988,505.413 166.137,505.87 165.621,504.81 C164.357,501.817 165.037,502.951 163.883,501.243 C163.522,500.5 163.779,500.963 162.994,499.926 C161.247,497.338 162.099,498.287 160.686,496.875 C160.117,496.121 160.496,496.565 159.449,495.637 C157.32,493.508 158.326,494.28 156.602,493.116 C155.412,492.062 156.31,492.816 153.699,491.127 L153.526,491.039 C152.845,490.579 153.249,490.81 152.283,490.402 C150.746,489.616 151.531,489.943 149.934,489.41 C147.593,488.421 148.688,488.734 146.693,488.327 C145.276,487.854 146.087,488.057 144.237,487.826 C141.854,487.34 143.072,487.497 140.58,487.371 C140.228,487.327 140.385,487.328 140.108,487.347 L139.574,487.32 L139.574,487.32 z" fill="#A0A0A0"/>
    <path d="M91.443,207.75 L93.226,208.779 C91.741,207.973 92.319,208.342 91.443,207.75 z" fill="#A0A0A0"/>
    <path d="M92.815,62.11 L91.586,62.82 C92.19,62.412 91.792,62.666 92.815,62.11 z" fill="#A0A0A0"/>
    <path d="M135.269,242.508 L135.269,270.854 L143.772,270.854 L143.772,242.508 L144.475,242.508 C189.772,246.712 219.828,277.421 224.39,322.418 L224.39,323.126 L196.044,323.126 L196.044,331.63 L224.39,331.63 L224.39,332.338 C220.184,377.638 189.471,407.687 144.475,412.248 L143.772,412.248 L143.772,383.9 L135.269,383.9 L135.269,412.248 L134.566,412.248 C89.269,408.044 59.212,377.336 54.651,332.339 L54.651,331.63 L82.997,331.63 L82.997,323.126 L54.651,323.126 L54.651,322.417 C58.857,277.118 89.57,247.069 134.566,242.508 L135.269,242.508 z M139.521,299.263 C123.994,299.263 111.406,311.851 111.406,327.378 C111.406,342.905 123.994,355.493 139.521,355.493 C155.048,355.492 167.634,342.905 167.634,327.378 C167.634,311.851 155.048,299.264 139.521,299.263 z" fill="#A0A0A0"/>
    <path d="M135.269,622.508 L135.269,650.854 L143.772,650.854 L143.772,622.508 L144.475,622.508 C152.156,623.225 159.78,624.705 167.068,627.253 C177.732,630.852 187.23,636.951 196.025,643.859 L196.526,644.359 L176.482,664.403 L182.495,670.416 L202.539,650.372 L203.04,650.873 C207.952,656.802 212.296,663.224 215.641,670.166 C220.645,680.262 223.054,691.302 224.39,702.418 L224.39,703.126 L196.044,703.126 L196.044,711.63 L224.39,711.63 L224.39,712.338 C223.671,720.003 222.202,727.615 219.659,734.889 C216.057,745.568 209.953,755.08 203.036,763.886 L202.539,764.383 L182.494,744.339 L176.481,750.351 L196.526,770.396 L196.029,770.893 C190.094,775.813 183.663,780.158 176.712,783.507 C166.62,788.507 155.585,790.913 144.475,792.248 L143.772,792.248 L143.772,763.9 L135.269,763.9 L135.269,792.248 L134.566,792.248 C126.885,791.531 119.262,790.051 111.974,787.504 C101.31,783.905 91.812,777.805 83.017,770.897 L82.515,770.396 L102.559,750.352 L96.546,744.339 L76.502,764.383 L76.001,763.881 C71.079,757.945 66.735,751.511 63.385,744.558 C58.389,734.472 55.985,723.443 54.651,712.339 L54.651,711.63 L82.997,711.63 L82.997,703.126 L54.651,703.126 L54.651,702.417 C55.37,694.752 56.838,687.142 59.381,679.869 C62.983,669.188 69.088,659.676 76.005,650.869 L76.502,650.372 L96.546,670.415 L102.558,664.403 L82.515,644.359 L83.012,643.862 C88.944,638.946 95.37,634.602 102.316,631.254 C112.412,626.251 123.451,623.844 134.566,622.508 L135.269,622.508 z M139.521,679.263 L136.963,679.392 C136.809,679.392 136.871,679.383 136.777,679.401 C136.019,679.44 136.689,679.399 134.799,679.785 C131.458,680.432 132.549,680.002 131.351,680.488 C130.331,680.696 131.22,680.502 128.821,681.516 C126.386,682.504 127.159,682.008 126.283,682.588 C125.1,683.087 126.169,682.623 123.369,684.514 C121.739,685.592 122.248,685.141 121.678,685.656 C121.6,685.708 121.649,685.672 121.542,685.778 L119.641,687.497 L117.919,689.401 C117.815,689.505 117.851,689.458 117.8,689.534 C117.281,690.107 117.735,689.595 116.651,691.235 C114.767,694.025 115.229,692.961 114.731,694.138 C114.149,695.019 114.647,694.242 113.654,696.689 C112.645,699.077 112.839,698.192 112.631,699.207 C112.141,700.415 112.575,699.314 111.922,702.685 C111.543,704.545 111.582,703.885 111.545,704.632 C111.526,704.729 111.535,704.665 111.535,704.826 L111.406,707.378 L111.535,709.93 C111.535,710.089 111.526,710.026 111.545,710.122 C111.583,710.879 111.542,710.21 111.927,712.096 C112.575,715.44 112.144,714.348 112.631,715.547 C112.841,716.575 112.645,715.678 113.667,718.099 C114.647,720.512 114.156,719.746 114.73,720.614 C115.238,721.818 114.766,720.729 116.692,723.582 C117.734,725.158 117.298,724.666 117.796,725.217 C117.854,725.303 117.814,725.249 117.932,725.367 L119.641,727.258 L121.531,728.966 C121.65,729.085 121.596,729.044 121.682,729.103 C122.227,729.595 121.741,729.164 123.297,730.193 C126.17,732.133 125.074,731.658 126.286,732.17 C127.146,732.738 126.387,732.251 128.777,733.222 C131.221,734.255 130.316,734.056 131.354,734.268 C132.533,734.747 131.459,734.323 134.749,734.961 C136.69,735.357 136.002,735.315 136.78,735.355 C136.868,735.372 136.81,735.363 136.956,735.363 L139.521,735.493 L142.083,735.363 C142.232,735.363 142.172,735.372 142.263,735.354 C143.032,735.315 142.352,735.356 144.269,734.965 C147.584,734.323 146.501,734.75 147.69,734.268 C148.717,734.058 147.821,734.254 150.238,733.233 C152.656,732.251 151.888,732.743 152.758,732.168 C153.949,731.665 152.873,732.132 155.695,730.226 C157.302,729.163 156.8,729.608 157.363,729.1 C157.442,729.047 157.392,729.084 157.501,728.975 L159.401,727.258 L161.121,725.355 C161.226,725.25 161.19,725.298 161.241,725.222 C161.763,724.644 161.306,725.16 162.397,723.509 C164.274,720.73 163.814,721.791 164.309,720.618 C164.898,719.727 164.394,720.513 165.399,718.038 C166.395,715.68 166.204,716.553 166.408,715.552 C166.91,714.315 166.465,715.442 167.134,711.99 C167.497,710.212 167.459,710.843 167.495,710.13 C167.516,710.019 167.506,710.092 167.506,709.91 L167.634,707.378 L167.506,704.842 C167.506,704.664 167.516,704.735 167.495,704.627 C167.459,703.903 167.497,704.544 167.129,702.737 C166.465,699.314 166.906,700.432 166.409,699.206 C166.201,698.189 166.395,699.077 165.382,696.679 C164.393,694.244 164.889,695.016 164.31,694.141 C163.801,692.936 164.274,694.026 162.343,691.167 C161.307,689.599 161.741,690.088 161.245,689.54 C161.186,689.453 161.227,689.508 161.107,689.387 L159.4,687.498 L157.514,685.794 C157.39,685.67 157.447,685.713 157.357,685.652 C156.818,685.165 157.299,685.591 155.76,684.573 C152.871,682.623 153.973,683.101 152.754,682.586 C151.896,682.018 152.654,682.504 150.266,681.535 C147.821,680.502 148.727,680.7 147.688,680.488 C146.5,680.006 147.582,680.433 144.267,679.79 C142.352,679.399 143.031,679.44 142.263,679.402 C142.171,679.384 142.232,679.392 142.079,679.392 L139.521,679.263 z" fill="#A0A0A0"/>
    <path d="M533.584,52.441 L533.584,162 L505.237,162 L505.237,170.504 L533.584,170.504 L533.584,452 L505.237,452 L505.237,460.504 L533.584,460.504 L533.584,710.629 L505.237,710.629 L505.237,719.133 L533.584,719.133 L533.584,789.449 L498.049,789.449 C473.272,758.504 425.452,752.193 394.595,751.766 C369.167,752.132 343.333,755.668 319.065,767.742 C309.118,772.691 299.141,779.09 291.141,789.449 L240.119,789.449 L288.929,713.765 L270.262,690.236 L314.929,611.765 C314.929,611.766 296.929,591.024 296.262,591.024 C295.595,591.024 351.373,514.432 351.373,514.432 L324.706,491.811 L382.484,418.432 L359.818,392.598 C359.818,392.599 415.817,322.766 416.484,322.766 C417.151,322.766 397.817,293.386 397.817,293.386 C397.817,293.386 449.595,224.766 449.595,224.766 C449.595,224.766 433.595,194.173 433.595,194.173 C433.595,194.173 499.595,119.766 499.595,119.766 C499.595,119.766 486.929,94.961 486.929,94.961 L533.584,52.441 z M260.03,782.625 C259.404,782.625 258.896,783.133 258.896,783.759 C258.896,784.385 259.404,784.893 260.03,784.893 C260.657,784.893 261.164,784.385 261.164,783.759 C261.164,783.133 260.657,782.625 260.03,782.625 L260.03,782.625 z M252.739,782.625 C252.112,782.625 251.605,783.133 251.605,783.759 C251.605,784.385 252.112,784.893 252.739,784.893 C253.365,784.893 253.872,784.385 253.872,783.759 C253.872,783.133 253.365,782.625 252.739,782.625 L252.739,782.625 z M256.384,782.625 C255.758,782.625 255.251,783.133 255.251,783.759 C255.251,784.385 255.758,784.893 256.384,784.893 C257.011,784.893 257.518,784.385 257.518,783.759 C257.518,783.133 257.011,782.625 256.384,782.625 L256.384,782.625 z M263.676,782.625 C263.05,782.625 262.542,783.133 262.542,783.759 C262.542,784.385 263.05,784.893 263.676,784.893 C264.302,784.893 264.81,784.385 264.81,783.759 C264.81,783.133 264.302,782.625 263.676,782.625 L263.676,782.625 z M289.03,688.625 C288.404,688.625 287.896,689.133 287.896,689.759 C287.896,690.385 288.404,690.893 289.03,690.893 C289.656,690.893 290.164,690.385 290.164,689.759 C290.164,689.133 289.656,688.625 289.03,688.625 L289.03,688.625 z M281.738,688.625 C281.112,688.625 280.605,689.133 280.604,689.759 C280.605,690.385 281.112,690.893 281.738,690.893 C282.365,690.893 282.872,690.385 282.872,689.759 C282.872,689.133 282.365,688.625 281.738,688.625 L281.738,688.625 z M285.384,688.625 C284.758,688.625 284.25,689.133 284.25,689.759 C284.25,690.385 284.758,690.893 285.384,690.893 C286.01,690.893 286.518,690.385 286.518,689.759 C286.518,689.133 286.01,688.625 285.384,688.625 L285.384,688.625 z M292.676,688.625 C292.05,688.625 291.542,689.133 291.542,689.759 C291.542,690.385 292.05,690.893 292.676,690.893 C293.302,690.893 293.81,690.385 293.81,689.759 C293.81,689.133 293.302,688.625 292.676,688.625 L292.676,688.625 z M315.03,589.625 C314.404,589.625 313.896,590.133 313.896,590.759 C313.896,591.385 314.404,591.893 315.03,591.893 C315.656,591.893 316.164,591.385 316.164,590.759 C316.164,590.133 315.656,589.625 315.03,589.625 L315.03,589.625 z M307.738,589.625 C307.112,589.625 306.604,590.133 306.604,590.759 C306.604,591.385 307.112,591.893 307.738,591.893 C308.364,591.893 308.872,591.385 308.872,590.759 C308.872,590.133 308.364,589.625 307.738,589.625 L307.738,589.625 z M311.384,589.625 C310.758,589.625 310.25,590.133 310.25,590.759 C310.25,591.385 310.758,591.893 311.384,591.893 C312.01,591.893 312.518,591.385 312.518,590.759 C312.518,590.133 312.01,589.625 311.384,589.625 L311.384,589.625 z M318.676,589.625 C318.049,589.625 317.542,590.133 317.542,590.759 C317.542,591.385 318.049,591.893 318.676,591.893 C319.302,591.893 319.809,591.385 319.809,590.759 C319.809,590.133 319.302,589.625 318.676,589.625 L318.676,589.625 z M348.03,490.625 C347.403,490.625 346.896,491.133 346.896,491.759 C346.896,492.385 347.403,492.893 348.03,492.893 C348.656,492.893 349.164,492.385 349.163,491.759 C349.164,491.133 348.656,490.625 348.03,490.625 L348.03,490.625 z M340.738,490.625 C340.112,490.625 339.604,491.133 339.604,491.759 C339.604,492.385 340.112,492.893 340.738,492.893 C341.364,492.893 341.872,492.385 341.872,491.759 C341.872,491.133 341.364,490.625 340.738,490.625 L340.738,490.625 z M344.384,490.625 C343.758,490.625 343.25,491.133 343.25,491.759 C343.25,492.385 343.758,492.893 344.384,492.893 C345.01,492.893 345.518,492.385 345.518,491.759 C345.518,491.133 345.01,490.625 344.384,490.625 L344.384,490.625 z M351.676,490.625 C351.049,490.625 350.542,491.133 350.542,491.759 C350.542,492.385 351.049,492.893 351.676,492.893 C352.302,492.893 352.809,492.385 352.809,491.759 C352.809,491.133 352.302,490.625 351.676,490.625 L351.676,490.625 z M381.03,391.625 C380.403,391.625 379.896,392.133 379.896,392.759 C379.896,393.385 380.403,393.893 381.03,393.893 C381.656,393.893 382.164,393.385 382.163,392.759 C382.164,392.133 381.656,391.625 381.03,391.625 L381.03,391.625 z M373.738,391.625 C373.112,391.625 372.604,392.133 372.604,392.759 C372.604,393.385 373.112,393.893 373.738,393.893 C374.364,393.893 374.872,393.385 374.872,392.759 C374.872,392.133 374.364,391.625 373.738,391.625 L373.738,391.625 z M377.384,391.625 C376.758,391.625 376.25,392.133 376.25,392.759 C376.25,393.385 376.758,393.893 377.384,393.893 C378.01,393.893 378.518,393.385 378.518,392.759 C378.518,392.133 378.01,391.625 377.384,391.625 L377.384,391.625 z M384.676,391.625 C384.049,391.625 383.542,392.133 383.542,392.759 C383.542,393.385 384.049,393.893 384.676,393.893 C385.302,393.893 385.809,393.385 385.809,392.759 C385.809,392.133 385.302,391.625 384.676,391.625 L384.676,391.625 z M420.03,292.625 C419.403,292.625 418.896,293.133 418.896,293.759 C418.896,294.385 419.403,294.893 420.03,294.893 C420.656,294.893 421.164,294.385 421.163,293.759 C421.164,293.133 420.656,292.625 420.03,292.625 L420.03,292.625 z M412.738,292.625 C412.112,292.625 411.604,293.133 411.604,293.759 C411.604,294.385 412.112,294.893 412.738,294.893 C413.364,294.893 413.872,294.385 413.872,293.759 C413.872,293.133 413.364,292.625 412.738,292.625 L412.738,292.625 z M416.384,292.625 C415.758,292.625 415.25,293.133 415.25,293.759 C415.25,294.385 415.758,294.893 416.384,294.893 C417.01,294.893 417.518,294.385 417.518,293.759 C417.518,293.133 417.01,292.625 416.384,292.625 L416.384,292.625 z M423.676,292.625 C423.049,292.625 422.542,293.133 422.542,293.759 C422.542,294.385 423.049,294.893 423.676,294.893 C424.302,294.893 424.809,294.385 424.809,293.759 C424.809,293.133 424.302,292.625 423.676,292.625 L423.676,292.625 z M459.03,193.375 C458.403,193.375 457.896,193.883 457.896,194.509 C457.896,195.135 458.403,195.643 459.03,195.643 C459.656,195.643 460.164,195.135 460.163,194.509 C460.164,193.883 459.656,193.375 459.03,193.375 L459.03,193.375 z M451.738,193.375 C451.112,193.375 450.604,193.883 450.604,194.509 C450.604,195.135 451.112,195.643 451.738,195.643 C452.364,195.643 452.872,195.135 452.872,194.509 C452.872,193.883 452.364,193.375 451.738,193.375 L451.738,193.375 z M455.384,193.375 C454.758,193.375 454.25,193.883 454.25,194.509 C454.25,195.135 454.758,195.643 455.384,195.643 C456.01,195.643 456.518,195.135 456.518,194.509 C456.518,193.883 456.01,193.375 455.384,193.375 L455.384,193.375 z M462.676,193.375 C462.049,193.375 461.542,193.883 461.542,194.509 C461.542,195.135 462.049,195.643 462.676,195.643 C463.302,195.643 463.809,195.135 463.809,194.509 C463.809,193.883 463.302,193.375 462.676,193.375 L462.676,193.375 z M510.28,94.125 C509.653,94.125 509.146,94.633 509.146,95.259 C509.146,95.885 509.653,96.393 510.28,96.393 C510.906,96.393 511.414,95.885 511.413,95.259 C511.414,94.633 510.906,94.125 510.28,94.125 L510.28,94.125 z M502.988,94.125 C502.362,94.125 501.854,94.633 501.854,95.259 C501.854,95.885 502.362,96.393 502.988,96.393 C503.614,96.393 504.122,95.885 504.122,95.259 C504.122,94.633 503.614,94.125 502.988,94.125 L502.988,94.125 z M506.634,94.125 C506.008,94.125 505.5,94.633 505.5,95.259 C505.5,95.885 506.008,96.393 506.634,96.393 C507.26,96.393 507.768,95.885 507.768,95.259 C507.768,94.633 507.26,94.125 506.634,94.125 L506.634,94.125 z M513.926,94.125 C513.299,94.125 512.792,94.633 512.792,95.259 C512.792,95.885 513.299,96.393 513.926,96.393 C514.552,96.393 515.059,95.885 515.059,95.259 C515.059,94.633 514.552,94.125 513.926,94.125 L513.926,94.125 z" fill="#A0A0A0"/>
  </g>
</svg>
