<?xml version="1.0" encoding="UTF-8"?>
<!DOCTYPE svg PUBLIC "-//W3C//DTD SVG 1.1//EN" "http://www.w3.org/Graphics/SVG/1.1/DTD/svg11.dtd">
<svg version="1.1" xmlns="http://www.w3.org/2000/svg" xmlns:xlink="http://www.w3.org/1999/xlink" x="0" y="0" width="595.276" height="841.89" viewBox="0, 0, 595.276, 841.89">
  <g id="Layer_1">
    <path d="M181.269,66.508 L181.269,94.854 L189.772,94.854 L189.772,66.508 L190.475,66.508 C235.772,70.712 265.828,101.421 270.39,146.418 L270.39,147.126 L242.044,147.126 L242.044,155.63 L270.39,155.63 L270.39,156.338 C266.184,201.638 235.471,231.687 190.475,236.248 L189.772,236.248 L189.772,207.9 L181.269,207.9 L181.269,236.248 L180.566,236.248 C135.269,232.044 105.212,201.336 100.651,156.339 L100.651,155.63 L128.997,155.63 L128.997,147.126 L100.651,147.126 L100.651,146.417 C104.857,101.118 135.57,71.069 180.566,66.508 L181.269,66.508 z M185.521,123.263 C169.994,123.263 157.406,135.851 157.406,151.378 C157.406,166.905 169.994,179.493 185.521,179.493 C201.048,179.492 213.634,166.905 213.634,151.378 C213.634,135.851 201.048,123.264 185.521,123.263 z" fill="#A0A0A0"/>
    <path d="M483.584,52.441 L483.584,184.628 L455.237,184.628 L455.237,193.132 L483.584,193.132 L483.584,789.449 L448.049,789.449 C423.272,758.504 375.452,752.193 344.595,751.766 C319.167,752.132 293.333,755.668 269.065,767.742 C259.118,772.691 249.141,779.09 241.141,789.449 L190.119,789.449 L238.929,713.765 L220.262,690.236 L264.929,611.765 C264.929,611.766 246.929,591.024 246.262,591.024 C245.595,591.024 301.373,514.432 301.373,514.432 L274.706,491.811 L332.484,418.432 L309.818,392.598 C309.818,392.599 365.817,322.766 366.484,322.766 C367.151,322.766 347.817,293.386 347.817,293.386 C347.817,293.386 399.595,224.766 399.595,224.766 C399.595,224.766 383.595,194.173 383.595,194.173 C383.595,194.173 449.595,119.766 449.595,119.766 C449.595,119.766 436.929,94.961 436.929,94.961 L483.584,52.441 z M210.03,782.625 C209.404,782.625 208.896,783.133 208.896,783.759 C208.896,784.385 209.404,784.893 210.03,784.893 C210.657,784.893 211.164,784.385 211.164,783.759 C211.164,783.133 210.657,782.625 210.03,782.625 z M202.739,782.625 C202.112,782.625 201.605,783.133 201.605,783.759 C201.605,784.385 202.112,784.893 202.739,784.893 C203.365,784.893 203.872,784.385 203.872,783.759 C203.872,783.133 203.365,782.625 202.739,782.625 z M206.384,782.625 C205.758,782.625 205.251,783.133 205.251,783.759 C205.251,784.385 205.758,784.893 206.384,784.893 C207.011,784.893 207.518,784.385 207.518,783.759 C207.518,783.133 207.011,782.625 206.384,782.625 z M213.676,782.625 C213.05,782.625 212.542,783.133 212.542,783.759 C212.542,784.385 213.05,784.893 213.676,784.893 C214.302,784.893 214.81,784.385 214.81,783.759 C214.81,783.133 214.302,782.625 213.676,782.625 z M483.584,710.629 L455.237,710.629 L455.237,719.133 L483.584,719.133 L483.584,710.629 z M239.03,688.625 C238.404,688.625 237.896,689.133 237.896,689.759 C237.896,690.385 238.404,690.893 239.03,690.893 C239.656,690.893 240.164,690.385 240.164,689.759 C240.164,689.133 239.656,688.625 239.03,688.625 z M231.738,688.625 C231.112,688.625 230.605,689.133 230.604,689.759 C230.605,690.385 231.112,690.893 231.738,690.893 C232.365,690.893 232.872,690.385 232.872,689.759 C232.872,689.133 232.365,688.625 231.738,688.625 z M235.384,688.625 C234.758,688.625 234.25,689.133 234.25,689.759 C234.25,690.385 234.758,690.893 235.384,690.893 C236.01,690.893 236.518,690.385 236.518,689.759 C236.518,689.133 236.01,688.625 235.384,688.625 z M242.676,688.625 C242.05,688.625 241.542,689.133 241.542,689.759 C241.542,690.385 242.05,690.893 242.676,690.893 C243.302,690.893 243.81,690.385 243.81,689.759 C243.81,689.133 243.302,688.625 242.676,688.625 z M265.03,589.625 C264.404,589.625 263.896,590.133 263.896,590.759 C263.896,591.385 264.404,591.893 265.03,591.893 C265.656,591.893 266.164,591.385 266.164,590.759 C266.164,590.133 265.656,589.625 265.03,589.625 z M257.738,589.625 C257.112,589.625 256.604,590.133 256.604,590.759 C256.604,591.385 257.112,591.893 257.738,591.893 C258.364,591.893 258.872,591.385 258.872,590.759 C258.872,590.133 258.364,589.625 257.738,589.625 z M261.384,589.625 C260.758,589.625 260.25,590.133 260.25,590.759 C260.25,591.385 260.758,591.893 261.384,591.893 C262.01,591.893 262.518,591.385 262.518,590.759 C262.518,590.133 262.01,589.625 261.384,589.625 z M268.676,589.625 C268.049,589.625 267.542,590.133 267.542,590.759 C267.542,591.385 268.049,591.893 268.676,591.893 C269.302,591.893 269.809,591.385 269.809,590.759 C269.809,590.133 269.302,589.625 268.676,589.625 z M298.03,490.625 C297.403,490.625 296.896,491.133 296.896,491.759 C296.896,492.385 297.403,492.893 298.03,492.893 C298.656,492.893 299.164,492.385 299.163,491.759 C299.164,491.133 298.656,490.625 298.03,490.625 z M290.738,490.625 C290.112,490.625 289.604,491.133 289.604,491.759 C289.604,492.385 290.112,492.893 290.738,492.893 C291.364,492.893 291.872,492.385 291.872,491.759 C291.872,491.133 291.364,490.625 290.738,490.625 z M294.384,490.625 C293.758,490.625 293.25,491.133 293.25,491.759 C293.25,492.385 293.758,492.893 294.384,492.893 C295.01,492.893 295.518,492.385 295.518,491.759 C295.518,491.133 295.01,490.625 294.384,490.625 z M301.676,490.625 C301.049,490.625 300.542,491.133 300.542,491.759 C300.542,492.385 301.049,492.893 301.676,492.893 C302.302,492.893 302.809,492.385 302.809,491.759 C302.809,491.133 302.302,490.625 301.676,490.625 z M331.03,391.625 C330.403,391.625 329.896,392.133 329.896,392.759 C329.896,393.385 330.403,393.893 331.03,393.893 C331.656,393.893 332.164,393.385 332.163,392.759 C332.164,392.133 331.656,391.625 331.03,391.625 z M323.738,391.625 C323.112,391.625 322.604,392.133 322.604,392.759 C322.604,393.385 323.112,393.893 323.738,393.893 C324.364,393.893 324.872,393.385 324.872,392.759 C324.872,392.133 324.364,391.625 323.738,391.625 z M327.384,391.625 C326.758,391.625 326.25,392.133 326.25,392.759 C326.25,393.385 326.758,393.893 327.384,393.893 C328.01,393.893 328.518,393.385 328.518,392.759 C328.518,392.133 328.01,391.625 327.384,391.625 z M334.676,391.625 C334.049,391.625 333.542,392.133 333.542,392.759 C333.542,393.385 334.049,393.893 334.676,393.893 C335.302,393.893 335.809,393.385 335.809,392.759 C335.809,392.133 335.302,391.625 334.676,391.625 z M370.03,292.625 C369.403,292.625 368.896,293.133 368.896,293.759 C368.896,294.385 369.403,294.893 370.03,294.893 C370.656,294.893 371.164,294.385 371.163,293.759 C371.164,293.133 370.656,292.625 370.03,292.625 z M362.738,292.625 C362.112,292.625 361.604,293.133 361.604,293.759 C361.604,294.385 362.112,294.893 362.738,294.893 C363.364,294.893 363.872,294.385 363.872,293.759 C363.872,293.133 363.364,292.625 362.738,292.625 z M366.384,292.625 C365.758,292.625 365.25,293.133 365.25,293.759 C365.25,294.385 365.758,294.893 366.384,294.893 C367.01,294.893 367.518,294.385 367.518,293.759 C367.518,293.133 367.01,292.625 366.384,292.625 z M373.676,292.625 C373.049,292.625 372.542,293.133 372.542,293.759 C372.542,294.385 373.049,294.893 373.676,294.893 C374.302,294.893 374.809,294.385 374.809,293.759 C374.809,293.133 374.302,292.625 373.676,292.625 z M409.03,193.375 C408.403,193.375 407.896,193.883 407.896,194.509 C407.896,195.135 408.403,195.643 409.03,195.643 C409.656,195.643 410.164,195.135 410.163,194.509 C410.164,193.883 409.656,193.375 409.03,193.375 z M401.738,193.375 C401.112,193.375 400.604,193.883 400.604,194.509 C400.604,195.135 401.112,195.643 401.738,195.643 C402.364,195.643 402.872,195.135 402.872,194.509 C402.872,193.883 402.364,193.375 401.738,193.375 z M405.384,193.375 C404.758,193.375 404.25,193.883 404.25,194.509 C404.25,195.135 404.758,195.643 405.384,195.643 C406.01,195.643 406.518,195.135 406.518,194.509 C406.518,193.883 406.01,193.375 405.384,193.375 z M412.676,193.375 C412.049,193.375 411.542,193.883 411.542,194.509 C411.542,195.135 412.049,195.643 412.676,195.643 C413.302,195.643 413.809,195.135 413.809,194.509 C413.809,193.883 413.302,193.375 412.676,193.375 z M460.28,94.125 C459.653,94.125 459.146,94.633 459.146,95.259 C459.146,95.885 459.653,96.393 460.28,96.393 C460.906,96.393 461.414,95.885 461.413,95.259 C461.414,94.633 460.906,94.125 460.28,94.125 z M452.988,94.125 C452.362,94.125 451.854,94.633 451.854,95.259 C451.854,95.885 452.362,96.393 452.988,96.393 C453.614,96.393 454.122,95.885 454.122,95.259 C454.122,94.633 453.614,94.125 452.988,94.125 z M456.634,94.125 C456.008,94.125 455.5,94.633 455.5,95.259 C455.5,95.885 456.008,96.393 456.634,96.393 C457.26,96.393 457.768,95.885 457.768,95.259 C457.768,94.633 457.26,94.125 456.634,94.125 z M463.926,94.125 C463.299,94.125 462.792,94.633 462.792,95.259 C462.792,95.885 463.299,96.393 463.926,96.393 C464.552,96.393 465.059,95.885 465.059,95.259 C465.059,94.633 464.552,94.125 463.926,94.125 z" fill="#A0A0A0"/>
  </g>
</svg>
